<?xml version="1.0" encoding="UTF-8"?>
<svg version="1.1" viewBox="0 0 400 600" xmlns="http://www.w3.org/2000/svg">
 <defs>
  <filter id="d" color-interpolation-filters="sRGB">
   <feGaussianBlur stdDeviation="4.0015975"/>
  </filter>
  <filter id="e" color-interpolation-filters="sRGB">
   <feGaussianBlur stdDeviation="4.0015975"/>
  </filter>
  <linearGradient id="f" x1="148.49" x2="148.49" y1="28.658" y2="611.36" gradientTransform="matrix(.94596 0 0 .98209 8.689 452.77)" gradientUnits="userSpaceOnUse">
   <stop offset="0"/>
   <stop stop-color="#333" offset="1"/>
  </linearGradient>
 </defs>
 <g transform="translate(0 -452.36)">
  <rect x="2" y="450.36" width="400" height="600" color="#000000" fill="#080808"/>
  <path transform="matrix(.91769 0 0 .91769 -133.93 270.02)" d="m452 243.35c-12.321-0.072-24.868 2.5722-36.743 8.2128-29.97 14.235-47.707 43.819-48.293 74.881 12.877 0.57841 26.075-1.8995 38.53-7.8154 29.882-14.194 47.14-44.219 46.506-75.279z" color="#000000" fill="#808080" fill-rule="evenodd" filter="url(#e)" opacity=".66" stroke="#808080" stroke-linecap="round" stroke-linejoin="round" stroke-width="8.6086"/>
  <path transform="matrix(.91769 0 0 .91769 -133.93 282.02)" d="m373.38 334.48a11.001 11.001 0 0 0 -1.0938 0.0625c-52 0.59516-94.125 43.017-94.125 95.156 0 4.3908-1.6306 12.084-4.0938 20.812-2.43 8.6116-5.5772 17.96-8.3438 25.75-8.5701 24.132-24.698 44.68-39.219 67.438-14.489 22.707-27.219 47.853-27.219 80.406 0 70.887 42.417 131.98 103.28 159.12 11.931 5.3213 24.194 5.0728 35.875 4s23.208-3 34.938-3c11.561 0 22.933 1.9376 34.469 3.0625s23.689 1.4857 35.531-3.7188c54.834-24.098 94.858-75.665 102.72-137.22-60.059-1.9566-108.16-51.247-108.16-111.78 0-32.22 13.637-61.246 35.438-81.656-0.23419-0.80009-0.49632-1.6174-0.71875-2.4062-2.4572-8.7149-4.0625-16.382-4.0625-20.812-1e-5 -52.508-42.71-95.219-95.219-95.219z" color="#000000" fill="#b3b3b3" fill-rule="evenodd" filter="url(#d)" stroke="#b3b3b3" stroke-linecap="round" stroke-linejoin="round" stroke-width="8.6086"/>
  <path transform="matrix(.91769 0 0 .91769 -133.93 270.02)" d="m452 243.35c-12.321-0.072-24.868 2.5722-36.743 8.2128-29.97 14.235-47.707 43.819-48.293 74.881 12.877 0.57841 26.075-1.8995 38.53-7.8154 29.882-14.194 47.14-44.219 46.506-75.279z" color="#000000" fill="#fff" fill-rule="evenodd"/>
  <path transform="matrix(.91769 0 0 .91769 -133.93 282.02)" d="m373.38 334.48a11.001 11.001 0 0 0 -1.0938 0.0625c-52 0.59516-94.125 43.017-94.125 95.156 0 4.3908-1.6306 12.084-4.0938 20.812-2.43 8.6116-5.5772 17.96-8.3438 25.75-8.5701 24.132-24.698 44.68-39.219 67.438-14.489 22.707-27.219 47.853-27.219 80.406 0 70.887 42.417 131.98 103.28 159.12 11.931 5.3213 24.194 5.0728 35.875 4s23.208-3 34.938-3c11.561 0 22.933 1.9376 34.469 3.0625s23.689 1.4857 35.531-3.7188c54.834-24.098 94.858-75.665 102.72-137.22-60.059-1.9566-108.16-51.247-108.16-111.78 0-32.22 13.637-61.246 35.438-81.656-0.23419-0.80009-0.49632-1.6174-0.71875-2.4062-2.4572-8.7149-4.0625-16.382-4.0625-20.812-1e-5 -52.508-42.71-95.219-95.219-95.219z" color="#000000" fill="#fff" fill-rule="evenodd"/>
  <path transform="translate(0 452.36)" d="m280.88 40.969c-11.31-0.066-22.83 2.355-33.72 7.531-27.51 13.064-43.78 40.213-44.32 68.72 11.82 0.53 23.92-1.73 35.35-7.16 27.42-13.023 43.27-40.588 42.69-69.091zm-72.16 95.621a10.096 10.096 0 0 0 -1 0.07c-44.63 0.51-81.34 34.57-85.91 78.12h173.81c-4.59-43.89-41.81-78.19-86.9-78.19z" color="#000000" fill="#28921c" fill-rule="evenodd"/>
  <path transform="translate(0 452.36)" d="m121.81 214.78c-0.32 3.03-0.47 6.08-0.47 9.19 0 4.03-1.52 11.11-3.78 19.12-2.23 7.91-5.11 16.48-7.65 23.63-1.96 5.51-4.35 10.81-7.03 16h172.15c5.63-14.33 14.39-27.1 25.44-37.44-0.22-0.73-0.45-1.46-0.66-2.19-2.25-7.99-3.72-15.06-3.72-19.12 0-3.11-0.15-6.16-0.47-9.19h-173.81z" color="#000000" fill="#ffbe28" fill-rule="evenodd"/>
  <path transform="translate(0 452.36)" d="m102.88 282.72c-8.114 15.65-18.935 30.19-28.942 45.87-4.488 7.04-8.768 14.35-12.5 22.07h211.12c-2.98-9.62-4.59-19.84-4.59-30.44 0-13.24 2.49-25.88 7.06-37.5h-172.15z" color="#000000" fill="#ff4620" fill-rule="evenodd"/>
  <path transform="translate(0 452.36)" d="m61.438 350.66c-7.328 15.15-12.501 31.92-12.5 51.72 0 5.47 0.304 10.91 0.843 16.24h291.6c-32.78-9.72-58.7-35.36-68.82-67.96h-211.12z" color="#000000" fill="#ff2020" fill-rule="evenodd"/>
  <path transform="translate(0 452.36)" d="m49.781 418.62c2.499 24.75 10.634 47.83 23.125 67.94h271.62c11.79-18.97 19.73-40.58 22.69-63.75-8.95-0.29-17.61-1.74-25.84-4.19h-291.6z" color="#000000" fill="#c2244d" fill-rule="evenodd"/>
  <path transform="translate(0 452.36)" d="m72.906 486.56c16.81 27.07 41.464 48.76 70.814 61.85 10.95 4.88 22.22 4.67 32.94 3.68 10.72-0.98 21.29-2.75 32.06-2.75 10.61 0 21.04 1.78 31.62 2.82 10.59 1.03 21.76 1.33 32.63-3.44 29.68-13.05 54.6-34.86 71.56-62.16h-271.62z" color="#000000" fill="#2055db" fill-rule="evenodd"/>
  <path transform="matrix(.91769 0 0 .91769 -133.93 270.02)" d="m452 243.35c-12.321-0.072-24.868 2.5722-36.743 8.2128-29.97 14.235-47.707 43.819-48.293 74.881 12.877 0.57841 26.075-1.8995 38.53-7.8154 29.882-14.194 47.14-44.219 46.506-75.279z" color="#000000" fill="none" stroke="#fff" stroke-linecap="round" stroke-linejoin="round" stroke-width="4.3588"/>
  <path transform="matrix(.91769 0 0 .91769 -133.93 282.02)" d="m373.38 334.48a11.001 11.001 0 0 0 -1.0938 0.0625c-52 0.59516-94.125 43.017-94.125 95.156 0 4.3908-1.6306 12.084-4.0938 20.812-2.43 8.6116-5.5772 17.96-8.3438 25.75-8.5701 24.132-24.698 44.68-39.219 67.438-14.489 22.707-27.219 47.853-27.219 80.406 0 70.887 42.417 131.98 103.28 159.12 11.931 5.3213 24.194 5.0728 35.875 4s23.208-3 34.938-3c11.561 0 22.933 1.9376 34.469 3.0625s23.689 1.4857 35.531-3.7188c54.834-24.098 94.858-75.665 102.72-137.22-60.059-1.9566-108.16-51.247-108.16-111.78 0-32.22 13.637-61.246 35.438-81.656-0.23419-0.80009-0.49632-1.6174-0.71875-2.4062-2.4572-8.7149-4.0625-16.382-4.0625-20.812-1e-5 -52.508-42.71-95.219-95.219-95.219z" color="#000000" fill="none" stroke="#fff" stroke-linecap="round" stroke-linejoin="round" stroke-width="4.3588"/>
 </g>
</svg>
